/* XPM */
static char * accordion_xpm[] = {
"20 20 2 1",
" 	c None",
".	c #dfdfdf",
"....................",
".                  .",
"....................",
"....................",
".                  .",
".                  .",
".                  .",
".                  .",
".                  .",
".                  .",
".                  .",
".                  .",
".                  .",
"....................",
"....................",
".                  .",
"....................",
"....................",
".                  .",
"...................."};
