/* XPM */
static char *binary_row[] = {
/* columns rows colors chars-per-pixel */
"20 20 2 1 ",
"  c None",
". c #dfdfdf",
/* pixels */
"....................",
".                  .",
".                  .",
".                  .",
".                  .",
".                  .",
".                  .",
".                  .",
".                  .",
"....................",
"....................",
".                  .",
".                  .",
".                  .",
"....................",
"....................",
".                  .",
".                  .",
".                  .",
"...................."
};
