/* XPM */
static char *tall_mirror[] = {
/* columns rows colors chars-per-pixel */
"20 20 2 1 ",
"  c None",
". c #dfdfdf",
/* pixels */
"....................",
".      ..          .",
".      ..          .",
".      ..          .",
".      ..          .",
".      ..          .",
".      ..          .",
".      ..          .",
".      ..          .",
".........          .",
".........          .",
".      ..          .",
".      ..          .",
".      ..          .",
".      ..          .",
".      ..          .",
".      ..          .",
".      ..          .",
".      ..          .",
"...................."
};
