/* XPM */
static char *two_pane[] = {
/* columns rows colors chars-per-pixel */
"20 20 2 1 ",
"  c None",
". c #dfdfdf",
/* pixels */
"....................",
".        ..        .",
".        ..        .",
".        ..        .",
".        ..        .",
".        ..        .",
".        ..        .",
".        ..        .",
".        ..        .",
".        ..        .",
".        ..        .",
".        ..        .",
".        ..        .",
".        ..        .",
".        ..        .",
".        ..        .",
".        ..        .",
".        ..        .",
".        ..        .",
"...................."
};
